<svg width="24" height="24" viewBox="0 0 24 24" fill="none" xmlns="http://www.w3.org/2000/svg">
<path fill-rule="evenodd" clip-rule="evenodd" d="M1.99047 3.95705C1.5 4.91964 1.5 6.17976 1.5 8.7V15.3C1.5 17.8203 1.5 19.0803 1.99047 20.043C2.4219 20.8898 3.11031 21.5781 3.95705 22.0095C4.91964 22.5 6.17976 22.5 8.7 22.5H15.3C17.8203 22.5 19.0803 22.5 20.043 22.0095C20.8898 21.5781 21.5781 20.8898 22.0095 20.043C22.5 19.0803 22.5 17.8203 22.5 15.3V8.7C22.5 6.17976 22.5 4.91964 22.0095 3.95705C21.5781 3.11031 20.8898 2.4219 20.043 1.99047C19.0803 1.5 17.8203 1.5 15.3 1.5H8.7C6.17976 1.5 4.91964 1.5 3.95705 1.99047C3.11031 2.4219 2.4219 3.11031 1.99047 3.95705ZM6.22722 10.6748C5.70242 10.3422 5.00736 10.498 4.67473 11.0227C4.34212 11.5475 4.49792 12.2426 5.02271 12.5752L8.84847 15L5.02271 17.4247C4.49792 17.7575 4.34212 18.4524 4.67473 18.9772C5.00736 19.5021 5.70242 19.6578 6.22722 19.3253L11.5522 15.9503C11.8777 15.744 12.075 15.3854 12.075 15C12.075 14.6146 11.8777 14.2561 11.5522 14.0498L6.22722 10.6748Z" fill="#A2D395"/>
</svg>
