<svg width="24" height="24" viewBox="0 0 24 24" fill="none" xmlns="http://www.w3.org/2000/svg">
<path fill-rule="evenodd" clip-rule="evenodd" d="M10.7911 1.83095C9.5421 0.899296 7.81803 2.07945 8.24693 3.57246C8.68254 5.0888 8.42668 6.71889 7.54714 8.03106L5.78622 10.6581C4.94754 11.9093 4.5 13.3794 4.5 14.8832V15.0406C4.5 19.1604 7.85787 22.5 12 22.5C16.1421 22.5 19.5 19.1604 19.5 15.0406V10.6658C19.5 9.40092 18.0167 8.70995 17.0397 9.51969L15 11.2103V8.32724C15 6.21414 13.9997 4.22438 12.3 2.95652L10.7911 1.83095ZM12 21C10.125 21 8.25 20.3454 8.25 17.7273C8.25 15.6798 9.77896 13.6656 11.0433 12.624C11.4605 12.2803 12 12.605 12 13.1456V15.7635C12 16.3041 12.5545 16.6671 13.05 16.451L14.7 15.7309C15.1954 15.5147 15.7557 15.8781 15.7248 16.4178C15.6164 18.3078 15.0422 21 12 21Z" fill="#FF540B"/>
</svg>
