<svg width="24" height="24" viewBox="0 0 24 24" fill="none" xmlns="http://www.w3.org/2000/svg">
<path fill-rule="evenodd" clip-rule="evenodd" d="M20.2326 18.5178C21.6522 16.7272 22.5 14.4626 22.5 12C22.5 6.20105 17.799 1.5 12 1.5C10.3896 1.5 8.86389 1.86253 7.5 2.51044C4.56649 3.90402 2.38167 6.61776 1.71332 9.88389C1.57346 10.5674 1.5 11.2751 1.5 12C1.5 17.799 6.201 22.5 12 22.5C12.5725 22.5 13.1344 22.4541 13.682 22.3661C16.3259 21.9403 18.6395 20.5275 20.2326 18.5178ZM13.1957 21.6774L13.1842 21.675L11.1108 20.9528C10.922 20.8871 10.7672 20.7486 10.681 20.5683L9.91068 18.9583C9.7143 18.5478 9.10346 18.6481 9.04862 19.1C9.02088 19.3283 8.827 19.5 8.59693 19.5H8.25C7.83577 19.5 7.5 19.1642 7.5 18.75V12.8051C7.5 12.7684 7.4973 12.7318 7.49194 12.6955L6.96304 9.11535C6.90865 8.74751 6.59293 8.47503 6.2211 8.47503H5.25C4.83577 8.47503 4.5 8.13923 4.5 7.72503V6.75C4.5 6.33582 4.83577 6 5.25 6H7.47377C7.59471 6 7.71387 6.02929 7.82107 6.08523L9.23685 6.82499L10.3538 7.42191C10.4501 7.47336 10.5565 7.50312 10.6655 7.50924L12.2172 7.59594C12.7068 7.62332 13.0389 8.10554 12.8899 8.57272L12.5301 9.70047C12.4467 9.96213 12.5129 10.2485 12.7028 10.4469L13.1445 10.9084C13.5275 11.3088 14.1975 11.1698 14.3898 10.6501L14.7481 9.68097C14.8885 9.3013 15.3048 9.10162 15.6888 9.22962L18.9872 10.3291C19.2934 10.4312 19.5 10.7177 19.5 11.0405V11.678C19.5 11.8836 19.4156 12.0802 19.2666 12.2217L17.3651 14.0283C17.216 14.1698 17.1316 14.3664 17.1316 14.572V15.5627C17.1316 15.7772 17.2235 15.9815 17.384 16.1238L18.67 17.2641C19.0672 17.6165 18.9828 18.2586 18.5079 18.496L18.3354 18.5823C18.1244 18.6879 17.8756 18.6879 17.6646 18.5823L16.597 18.0485C16.5687 18.0343 16.5396 18.0221 16.5099 18.0117C16.472 17.9984 16.4328 17.988 16.3932 17.9809L14.8552 17.7071C14.3956 17.6252 13.9737 17.9785 13.9737 18.4454V18.7456C13.9737 19.025 14.1288 19.2811 14.3763 19.4103L16.6251 20.5854C15.5817 21.1487 14.424 21.5273 13.1957 21.6774ZM14.5652 4.93479L14.0303 5.46963C13.7374 5.76261 13.7374 6.23739 14.0303 6.53037L16.1178 8.61777C16.346 8.84601 16.6948 8.90259 16.9834 8.75821L18.3441 8.07797C18.8592 7.82043 18.9037 7.10257 18.4247 6.78313L15.5117 4.84104C15.2142 4.64272 14.818 4.68201 14.5652 4.93479Z" fill="#00A6ED"/>
</svg>
