<svg width="24" height="24" viewBox="0 0 24 24" fill="none" xmlns="http://www.w3.org/2000/svg">
<path fill-rule="evenodd" clip-rule="evenodd" d="M10.0391 6.28378C12.5458 3.9441 16.3314 1.5 21.2176 1.5C21.9186 1.5 22.4868 2.06827 22.4868 2.76927C22.4868 7.0465 20.013 10.8332 17.7304 13.4419C17.2055 14.0419 16.3134 14.9459 15.4138 15.8247L16.2942 17.5854C16.4212 17.8395 16.3938 18.1436 16.2234 18.3708L13.3515 22.2C12.919 22.7766 12.0015 22.4708 12.0015 21.75V18.9431C11.8881 19.0338 11.786 19.114 11.6967 19.1833C11.5679 19.2833 11.4655 19.3603 11.3937 19.4137L11.3907 19.416L11.2854 19.4932L11.2794 19.4974L11.2759 19.5C10.7715 19.8603 10.0787 19.8047 9.6396 19.3654L4.56269 14.2884C4.15797 13.8836 4.0742 13.2581 4.35816 12.7611L4.37472 12.733L4.62794 12.3227C4.68863 12.2283 4.75952 12.1201 4.84049 12H2.25146C1.53069 12 1.22485 11.0824 1.80146 10.65L5.63064 7.77812C5.85789 7.60767 6.16196 7.58025 6.41604 7.7073L7.88815 8.44335C8.6912 7.60277 9.50161 6.78546 10.0391 6.28378ZM4.37472 12.733L4.35963 12.7586L4.36074 12.7566L4.36523 12.7489L4.37472 12.733ZM7.50145 19.5L4.50146 16.5C3.00146 16.5 1.50146 22.5 1.50146 22.5C1.50146 22.5 7.50145 21 7.50145 19.5ZM17.625 8.25C18.6604 8.25 19.5 7.41054 19.5 6.375C19.5 5.33946 18.6604 4.5 17.625 4.5C16.5894 4.5 15.75 5.33946 15.75 6.375C15.75 7.41054 16.5894 8.25 17.625 8.25Z" fill="#FFA800"/>
</svg>
