<svg width="116" height="48" viewBox="0 0 116 48" fill="none" xmlns="http://www.w3.org/2000/svg">
<g clip-path="url(#clip0_2006_335)">
<path d="M3.99597 1.95565C4.53538 1.95565 4.97265 1.51677 4.97265 0.975382C4.97265 0.433997 4.53538 -0.00488281 3.99597 -0.00488281C3.45656 -0.00488281 3.01929 0.433997 3.01929 0.975382C3.01929 1.51677 3.45656 1.95565 3.99597 1.95565Z" fill="#03BE5E"/>
<path d="M3.99597 4.73397C4.53538 4.73397 4.97265 4.29509 4.97265 3.7537C4.97265 3.21232 4.53538 2.77344 3.99597 2.77344C3.45656 2.77344 3.01929 3.21232 3.01929 3.7537C3.01929 4.29509 3.45656 4.73397 3.99597 4.73397Z" fill="#03BE5E"/>
<path d="M3.99597 7.51449C4.53538 7.51449 4.97265 7.07561 4.97265 6.53422C4.97265 5.99283 4.53538 5.55396 3.99597 5.55396C3.45656 5.55396 3.01929 5.99283 3.01929 6.53422C3.01929 7.07561 3.45656 7.51449 3.99597 7.51449Z" fill="#03BE5E"/>
<path d="M3.99597 10.2926C4.53538 10.2926 4.97265 9.85368 4.97265 9.3123C4.97265 8.77091 4.53538 8.33203 3.99597 8.33203C3.45656 8.33203 3.01929 8.77091 3.01929 9.3123C3.01929 9.85368 3.45656 10.2926 3.99597 10.2926Z" fill="#03BE5E"/>
<path d="M3.99597 13.0709C4.53538 13.0709 4.97265 12.632 4.97265 12.0906C4.97265 11.5492 4.53538 11.1104 3.99597 11.1104C3.45656 11.1104 3.01929 11.5492 3.01929 12.0906C3.01929 12.632 3.45656 13.0709 3.99597 13.0709Z" fill="#03BE5E"/>
<path d="M3.99597 15.8514C4.53538 15.8514 4.97265 15.4125 4.97265 14.8711C4.97265 14.3297 4.53538 13.8909 3.99597 13.8909C3.45656 13.8909 3.01929 14.3297 3.01929 14.8711C3.01929 15.4125 3.45656 15.8514 3.99597 15.8514Z" fill="#03BE5E"/>
<path d="M3.99597 18.6295C4.53538 18.6295 4.97265 18.1906 4.97265 17.6492C4.97265 17.1078 4.53538 16.6689 3.99597 16.6689C3.45656 16.6689 3.01929 17.1078 3.01929 17.6492C3.01929 18.1906 3.45656 18.6295 3.99597 18.6295Z" fill="#03BE5E"/>
<path d="M3.99597 21.4102C4.53538 21.4102 4.97265 20.9714 4.97265 20.43C4.97265 19.8886 4.53538 19.4497 3.99597 19.4497C3.45656 19.4497 3.01929 19.8886 3.01929 20.43C3.01929 20.9714 3.45656 21.4102 3.99597 21.4102Z" fill="#03BE5E"/>
<path d="M3.99597 24.1883C4.53538 24.1883 4.97265 23.7494 4.97265 23.208C4.97265 22.6667 4.53538 22.2278 3.99597 22.2278C3.45656 22.2278 3.01929 22.6667 3.01929 23.208C3.01929 23.7494 3.45656 24.1883 3.99597 24.1883Z" fill="#03BE5E"/>
<path d="M3.99597 26.9666C4.53538 26.9666 4.97265 26.5278 4.97265 25.9864C4.97265 25.445 4.53538 25.0061 3.99597 25.0061C3.45656 25.0061 3.01929 25.445 3.01929 25.9864C3.01929 26.5278 3.45656 26.9666 3.99597 26.9666Z" fill="#03BE5E"/>
<path d="M6.77808 4.73397C7.31748 4.73397 7.75476 4.29509 7.75476 3.7537C7.75476 3.21232 7.31748 2.77344 6.77808 2.77344C6.23867 2.77344 5.80139 3.21232 5.80139 3.7537C5.80139 4.29509 6.23867 4.73397 6.77808 4.73397Z" fill="#03BE5E"/>
<path d="M6.77808 7.51449C7.31748 7.51449 7.75476 7.07561 7.75476 6.53422C7.75476 5.99283 7.31748 5.55396 6.77808 5.55396C6.23867 5.55396 5.80139 5.99283 5.80139 6.53422C5.80139 7.07561 6.23867 7.51449 6.77808 7.51449Z" fill="#03BE5E"/>
<path d="M6.77808 10.2926C7.31748 10.2926 7.75476 9.85368 7.75476 9.3123C7.75476 8.77091 7.31748 8.33203 6.77808 8.33203C6.23867 8.33203 5.80139 8.77091 5.80139 9.3123C5.80139 9.85368 6.23867 10.2926 6.77808 10.2926Z" fill="#03BE5E"/>
<path d="M6.77808 13.0709C7.31748 13.0709 7.75476 12.632 7.75476 12.0906C7.75476 11.5492 7.31748 11.1104 6.77808 11.1104C6.23867 11.1104 5.80139 11.5492 5.80139 12.0906C5.80139 12.632 6.23867 13.0709 6.77808 13.0709Z" fill="#03BE5E"/>
<path d="M6.77808 15.8514C7.31748 15.8514 7.75476 15.4125 7.75476 14.8711C7.75476 14.3297 7.31748 13.8909 6.77808 13.8909C6.23867 13.8909 5.80139 14.3297 5.80139 14.8711C5.80139 15.4125 6.23867 15.8514 6.77808 15.8514Z" fill="#03BE5E"/>
<path d="M6.77808 18.6295C7.31748 18.6295 7.75476 18.1906 7.75476 17.6492C7.75476 17.1078 7.31748 16.6689 6.77808 16.6689C6.23867 16.6689 5.80139 17.1078 5.80139 17.6492C5.80139 18.1906 6.23867 18.6295 6.77808 18.6295Z" fill="#03BE5E"/>
<path d="M6.77808 21.4102C7.31748 21.4102 7.75476 20.9714 7.75476 20.43C7.75476 19.8886 7.31748 19.4497 6.77808 19.4497C6.23867 19.4497 5.80139 19.8886 5.80139 20.43C5.80139 20.9714 6.23867 21.4102 6.77808 21.4102Z" fill="#03BE5E"/>
<path d="M6.77808 24.1883C7.31748 24.1883 7.75476 23.7494 7.75476 23.208C7.75476 22.6667 7.31748 22.2278 6.77808 22.2278C6.23867 22.2278 5.80139 22.6667 5.80139 23.208C5.80139 23.7494 6.23867 24.1883 6.77808 24.1883Z" fill="#03BE5E"/>
<path d="M6.77808 26.9666C7.31748 26.9666 7.75476 26.5278 7.75476 25.9864C7.75476 25.445 7.31748 25.0061 6.77808 25.0061C6.23867 25.0061 5.80139 25.445 5.80139 25.9864C5.80139 26.5278 6.23867 26.9666 6.77808 26.9666Z" fill="#03BE5E"/>
<path d="M9.56256 13.0709C10.102 13.0709 10.5392 12.632 10.5392 12.0906C10.5392 11.5492 10.102 11.1104 9.56256 11.1104C9.02315 11.1104 8.58588 11.5492 8.58588 12.0906C8.58588 12.632 9.02315 13.0709 9.56256 13.0709Z" fill="#03BE5E"/>
<path d="M9.56256 15.8514C10.102 15.8514 10.5392 15.4125 10.5392 14.8711C10.5392 14.3297 10.102 13.8909 9.56256 13.8909C9.02315 13.8909 8.58588 14.3297 8.58588 14.8711C8.58588 15.4125 9.02315 15.8514 9.56256 15.8514Z" fill="#03BE5E"/>
<path d="M9.56256 18.6295C10.102 18.6295 10.5392 18.1906 10.5392 17.6492C10.5392 17.1078 10.102 16.6689 9.56256 16.6689C9.02315 16.6689 8.58588 17.1078 8.58588 17.6492C8.58588 18.1906 9.02315 18.6295 9.56256 18.6295Z" fill="#03BE5E"/>
<path d="M9.56256 21.4102C10.102 21.4102 10.5392 20.9714 10.5392 20.43C10.5392 19.8886 10.102 19.4497 9.56256 19.4497C9.02315 19.4497 8.58588 19.8886 8.58588 20.43C8.58588 20.9714 9.02315 21.4102 9.56256 21.4102Z" fill="#03BE5E"/>
<path d="M9.56256 24.1883C10.102 24.1883 10.5392 23.7494 10.5392 23.208C10.5392 22.6667 10.102 22.2278 9.56256 22.2278C9.02315 22.2278 8.58588 22.6667 8.58588 23.208C8.58588 23.7494 9.02315 24.1883 9.56256 24.1883Z" fill="#03BE5E"/>
<path d="M9.56256 26.9666C10.102 26.9666 10.5392 26.5278 10.5392 25.9864C10.5392 25.445 10.102 25.0061 9.56256 25.0061C9.02315 25.0061 8.58588 25.445 8.58588 25.9864C8.58588 26.5278 9.02315 26.9666 9.56256 26.9666Z" fill="#03BE5E"/>
<path d="M12.3447 13.0709C12.8841 13.0709 13.3214 12.632 13.3214 12.0906C13.3214 11.5492 12.8841 11.1104 12.3447 11.1104C11.8053 11.1104 11.368 11.5492 11.368 12.0906C11.368 12.632 11.8053 13.0709 12.3447 13.0709Z" fill="#03BE5E"/>
<path d="M12.3447 15.8514C12.8841 15.8514 13.3214 15.4125 13.3214 14.8711C13.3214 14.3297 12.8841 13.8909 12.3447 13.8909C11.8053 13.8909 11.368 14.3297 11.368 14.8711C11.368 15.4125 11.8053 15.8514 12.3447 15.8514Z" fill="#03BE5E"/>
<path d="M12.3447 18.6295C12.8841 18.6295 13.3214 18.1906 13.3214 17.6492C13.3214 17.1078 12.8841 16.6689 12.3447 16.6689C11.8053 16.6689 11.368 17.1078 11.368 17.6492C11.368 18.1906 11.8053 18.6295 12.3447 18.6295Z" fill="#03BE5E"/>
<path d="M12.3447 21.4102C12.8841 21.4102 13.3214 20.9714 13.3214 20.43C13.3214 19.8886 12.8841 19.4497 12.3447 19.4497C11.8053 19.4497 11.368 19.8886 11.368 20.43C11.368 20.9714 11.8053 21.4102 12.3447 21.4102Z" fill="#03BE5E"/>
<path d="M12.3447 24.1883C12.8841 24.1883 13.3214 23.7494 13.3214 23.208C13.3214 22.6667 12.8841 22.2278 12.3447 22.2278C11.8053 22.2278 11.368 22.6667 11.368 23.208C11.368 23.7494 11.8053 24.1883 12.3447 24.1883Z" fill="#03BE5E"/>
<path d="M15.1268 13.0709C15.6662 13.0709 16.1035 12.632 16.1035 12.0906C16.1035 11.5492 15.6662 11.1104 15.1268 11.1104C14.5874 11.1104 14.1501 11.5492 14.1501 12.0906C14.1501 12.632 14.5874 13.0709 15.1268 13.0709Z" fill="#03BE5E"/>
<path d="M15.1268 15.8514C15.6662 15.8514 16.1035 15.4125 16.1035 14.8711C16.1035 14.3297 15.6662 13.8909 15.1268 13.8909C14.5874 13.8909 14.1501 14.3297 14.1501 14.8711C14.1501 15.4125 14.5874 15.8514 15.1268 15.8514Z" fill="#03BE5E"/>
<path d="M15.1268 18.6295C15.6662 18.6295 16.1035 18.1906 16.1035 17.6492C16.1035 17.1078 15.6662 16.6689 15.1268 16.6689C14.5874 16.6689 14.1501 17.1078 14.1501 17.6492C14.1501 18.1906 14.5874 18.6295 15.1268 18.6295Z" fill="#03BE5E"/>
<path d="M15.1268 21.4102C15.6662 21.4102 16.1035 20.9714 16.1035 20.43C16.1035 19.8886 15.6662 19.4497 15.1268 19.4497C14.5874 19.4497 14.1501 19.8886 14.1501 20.43C14.1501 20.9714 14.5874 21.4102 15.1268 21.4102Z" fill="#03BE5E"/>
<path d="M17.9113 13.0709C18.4507 13.0709 18.888 12.632 18.888 12.0906C18.888 11.5492 18.4507 11.1104 17.9113 11.1104C17.3719 11.1104 16.9346 11.5492 16.9346 12.0906C16.9346 12.632 17.3719 13.0709 17.9113 13.0709Z" fill="#03BE5E"/>
<path d="M17.9113 15.8514C18.4507 15.8514 18.888 15.4125 18.888 14.8711C18.888 14.3297 18.4507 13.8909 17.9113 13.8909C17.3719 13.8909 16.9346 14.3297 16.9346 14.8711C16.9346 15.4125 17.3719 15.8514 17.9113 15.8514Z" fill="#03BE5E"/>
<path d="M20.6935 15.8514C21.2329 15.8514 21.6702 15.4125 21.6702 14.8711C21.6702 14.3297 21.2329 13.8909 20.6935 13.8909C20.1541 13.8909 19.7168 14.3297 19.7168 14.8711C19.7168 15.4125 20.1541 15.8514 20.6935 15.8514Z" fill="#03BE5E"/>
<path d="M17.9113 18.6295C18.4507 18.6295 18.888 18.1906 18.888 17.6492C18.888 17.1078 18.4507 16.6689 17.9113 16.6689C17.3719 16.6689 16.9346 17.1078 16.9346 17.6492C16.9346 18.1906 17.3719 18.6295 17.9113 18.6295Z" fill="#03BE5E"/>
<path d="M17.9113 21.4102C18.4507 21.4102 18.888 20.9714 18.888 20.43C18.888 19.8886 18.4507 19.4497 17.9113 19.4497C17.3719 19.4497 16.9346 19.8886 16.9346 20.43C16.9346 20.9714 17.3719 21.4102 17.9113 21.4102Z" fill="#03BE5E"/>
<path d="M20.6935 18.6295C21.2329 18.6295 21.6702 18.1906 21.6702 17.6492C21.6702 17.1078 21.2329 16.6689 20.6935 16.6689C20.1541 16.6689 19.7168 17.1078 19.7168 17.6492C19.7168 18.1906 20.1541 18.6295 20.6935 18.6295Z" fill="#03BE5E"/>
<path d="M20.6935 21.4102C21.2329 21.4102 21.6702 20.9714 21.6702 20.43C21.6702 19.8886 21.2329 19.4497 20.6935 19.4497C20.1541 19.4497 19.7168 19.8886 19.7168 20.43C19.7168 20.9714 20.1541 21.4102 20.6935 21.4102Z" fill="#03BE5E"/>
<path d="M23.478 18.6295C24.0174 18.6295 24.4547 18.1906 24.4547 17.6492C24.4547 17.1078 24.0174 16.6689 23.478 16.6689C22.9386 16.6689 22.5013 17.1078 22.5013 17.6492C22.5013 18.1906 22.9386 18.6295 23.478 18.6295Z" fill="#03BE5E"/>
<path d="M23.478 21.4102C24.0174 21.4102 24.4547 20.9714 24.4547 20.43C24.4547 19.8886 24.0174 19.4497 23.478 19.4497C22.9386 19.4497 22.5013 19.8886 22.5013 20.43C22.5013 20.9714 22.9386 21.4102 23.478 21.4102Z" fill="#03BE5E"/>
<path d="M15.1268 23.8443C15.6662 23.8443 16.1035 23.4054 16.1035 22.8641C16.1035 22.3227 15.6662 21.8838 15.1268 21.8838C14.5874 21.8838 14.1501 22.3227 14.1501 22.8641C14.1501 23.4054 14.5874 23.8443 15.1268 23.8443Z" fill="#03BE5E"/>
<path d="M17.9113 23.8443C18.4507 23.8443 18.888 23.4054 18.888 22.8641C18.888 22.3227 18.4507 21.8838 17.9113 21.8838C17.3719 21.8838 16.9346 22.3227 16.9346 22.8641C16.9346 23.4054 17.3719 23.8443 17.9113 23.8443Z" fill="#03BE5E"/>
<path d="M20.6935 23.8443C21.2329 23.8443 21.6702 23.4054 21.6702 22.8641C21.6702 22.3227 21.2329 21.8838 20.6935 21.8838C20.1541 21.8838 19.7168 22.3227 19.7168 22.8641C19.7168 23.4054 20.1541 23.8443 20.6935 23.8443Z" fill="#03BE5E"/>
<path d="M23.478 23.8443C24.0174 23.8443 24.4547 23.4054 24.4547 22.8641C24.4547 22.3227 24.0174 21.8838 23.478 21.8838C22.9386 21.8838 22.5013 22.3227 22.5013 22.8641C22.5013 23.4054 22.9386 23.8443 23.478 23.8443Z" fill="#03BE5E"/>
<path d="M26.2601 18.6295C26.7995 18.6295 27.2368 18.1906 27.2368 17.6492C27.2368 17.1078 26.7995 16.6689 26.2601 16.6689C25.7207 16.6689 25.2834 17.1078 25.2834 17.6492C25.2834 18.1906 25.7207 18.6295 26.2601 18.6295Z" fill="#03BE5E"/>
<path d="M26.2601 21.4102C26.7995 21.4102 27.2368 20.9714 27.2368 20.43C27.2368 19.8886 26.7995 19.4497 26.2601 19.4497C25.7207 19.4497 25.2834 19.8886 25.2834 20.43C25.2834 20.9714 25.7207 21.4102 26.2601 21.4102Z" fill="#03BE5E"/>
<path d="M26.2601 24.1883C26.7995 24.1883 27.2368 23.7494 27.2368 23.208C27.2368 22.6667 26.7995 22.2278 26.2601 22.2278C25.7207 22.2278 25.2834 22.6667 25.2834 23.208C25.2834 23.7494 25.7207 24.1883 26.2601 24.1883Z" fill="#03BE5E"/>
<path d="M26.2601 26.9666C26.7995 26.9666 27.2368 26.5278 27.2368 25.9864C27.2368 25.445 26.7995 25.0061 26.2601 25.0061C25.7207 25.0061 25.2834 25.445 25.2834 25.9864C25.2834 26.5278 25.7207 26.9666 26.2601 26.9666Z" fill="#03BE5E"/>
<path d="M29.0446 18.6295C29.584 18.6295 30.0213 18.1906 30.0213 17.6492C30.0213 17.1078 29.584 16.6689 29.0446 16.6689C28.5052 16.6689 28.0679 17.1078 28.0679 17.6492C28.0679 18.1906 28.5052 18.6295 29.0446 18.6295Z" fill="#03BE5E"/>
<path d="M29.0446 21.4102C29.584 21.4102 30.0213 20.9714 30.0213 20.43C30.0213 19.8886 29.584 19.4497 29.0446 19.4497C28.5052 19.4497 28.0679 19.8886 28.0679 20.43C28.0679 20.9714 28.5052 21.4102 29.0446 21.4102Z" fill="#03BE5E"/>
<path d="M29.0446 24.1883C29.584 24.1883 30.0213 23.7494 30.0213 23.208C30.0213 22.6667 29.584 22.2278 29.0446 22.2278C28.5052 22.2278 28.0679 22.6667 28.0679 23.208C28.0679 23.7494 28.5052 24.1883 29.0446 24.1883Z" fill="#03BE5E"/>
<path d="M29.0446 26.9666C29.584 26.9666 30.0213 26.5278 30.0213 25.9864C30.0213 25.445 29.584 25.0061 29.0446 25.0061C28.5052 25.0061 28.0679 25.445 28.0679 25.9864C28.0679 26.5278 28.5052 26.9666 29.0446 26.9666Z" fill="#03BE5E"/>
<path d="M31.8267 21.4102C32.3661 21.4102 32.8034 20.9714 32.8034 20.43C32.8034 19.8886 32.3661 19.4497 31.8267 19.4497C31.2873 19.4497 30.85 19.8886 30.85 20.43C30.85 20.9714 31.2873 21.4102 31.8267 21.4102Z" fill="#03BE5E"/>
<path d="M34.2661 21.4102C34.8055 21.4102 35.2428 20.9714 35.2428 20.43C35.2428 19.8886 34.8055 19.4497 34.2661 19.4497C33.7267 19.4497 33.2894 19.8886 33.2894 20.43C33.2894 20.9714 33.7267 21.4102 34.2661 21.4102Z" fill="#03BE5E"/>
<path d="M31.8267 26.9666C32.3661 26.9666 32.8034 26.5278 32.8034 25.9864C32.8034 25.445 32.3661 25.0061 31.8267 25.0061C31.2873 25.0061 30.85 25.445 30.85 25.9864C30.85 26.5278 31.2873 26.9666 31.8267 26.9666Z" fill="#03BE5E"/>
<path d="M31.8267 29.7472C32.3661 29.7472 32.8034 29.3083 32.8034 28.7669C32.8034 28.2255 32.3661 27.7866 31.8267 27.7866C31.2873 27.7866 30.85 28.2255 30.85 28.7669C30.85 29.3083 31.2873 29.7472 31.8267 29.7472Z" fill="#03BE5E"/>
<path d="M34.6089 18.6295C35.1483 18.6295 35.5856 18.1906 35.5856 17.6492C35.5856 17.1078 35.1483 16.6689 34.6089 16.6689C34.0695 16.6689 33.6322 17.1078 33.6322 17.6492C33.6322 18.1906 34.0695 18.6295 34.6089 18.6295Z" fill="#03BE5E"/>
<path d="M34.6089 26.9666C35.1483 26.9666 35.5856 26.5278 35.5856 25.9864C35.5856 25.445 35.1483 25.0061 34.6089 25.0061C34.0695 25.0061 33.6322 25.445 33.6322 25.9864C33.6322 26.5278 34.0695 26.9666 34.6089 26.9666Z" fill="#03BE5E"/>
<path d="M34.6089 29.7472C35.1483 29.7472 35.5856 29.3083 35.5856 28.7669C35.5856 28.2255 35.1483 27.7866 34.6089 27.7866C34.0695 27.7866 33.6322 28.2255 33.6322 28.7669C33.6322 29.3083 34.0695 29.7472 34.6089 29.7472Z" fill="#03BE5E"/>
<path d="M8.84884 38.3645C8.84884 39.9024 8.4685 41.0853 7.70781 41.9132C6.94712 42.7411 5.85696 43.1551 4.43733 43.1551C3.01769 43.1551 1.92753 42.7411 1.16685 41.9132C0.406161 41.0853 0.0258179 39.8977 0.0258179 38.3503C0.0258179 36.8045 0.406944 35.6224 1.16919 34.8039C1.93145 33.9855 3.02708 33.577 4.45611 33.5786C5.88201 33.5786 6.97138 33.9902 7.72424 34.8134C8.4771 35.6365 8.85197 36.8202 8.84884 38.3645ZM2.08484 38.3645C2.08484 39.4029 2.28127 40.1883 2.67413 40.7209C3.067 41.2534 3.65473 41.5166 4.43733 41.5103C6.00253 41.5103 6.78512 40.4648 6.78512 38.3739C6.78512 36.283 6.01035 35.232 4.46081 35.221C3.67821 35.221 3.08891 35.485 2.69292 36.0128C2.29692 36.5406 2.09423 37.3245 2.08484 38.3645Z" fill="#03BE5E"/>
<path d="M14.2887 37.8037H17.9653V42.6272C17.4167 42.8113 16.8536 42.9485 16.282 43.0373C15.7479 43.116 15.2088 43.1554 14.669 43.1551C13.2697 43.1551 12.2015 42.7427 11.4643 41.918C10.7271 41.0932 10.3585 39.9087 10.3585 38.3645C10.3585 36.8627 10.7858 35.6923 11.6404 34.8535C12.495 34.0146 13.6814 33.5944 15.1996 33.5928C16.1461 33.5911 17.0828 33.7852 17.9512 34.163L17.2985 35.7418C16.6439 35.4076 15.92 35.2332 15.1855 35.2328C14.8038 35.2172 14.4232 35.2861 14.071 35.4348C13.7188 35.5835 13.4035 35.8082 13.1476 36.0929C12.6358 36.6663 12.3799 37.4361 12.3799 38.4022C12.3799 39.4108 12.5857 40.1821 12.9974 40.7162C13.2118 40.9825 13.4863 41.1936 13.7983 41.3322C14.1102 41.4707 14.4506 41.5326 14.7911 41.5127C15.2098 41.5117 15.6274 41.4691 16.0378 41.3854V39.4461H14.2887V37.8037Z" fill="#03BE5E"/>
<path d="M27.704 33.7271V39.7453C27.7152 40.3795 27.5528 41.0047 27.2345 41.5527C26.9208 42.0707 26.4584 42.4815 25.908 42.7309C25.2624 43.0206 24.5606 43.1623 23.8536 43.1456C22.661 43.1456 21.7351 42.8393 21.0762 42.2266C20.4172 41.6139 20.0878 40.7751 20.0878 39.71V33.7271H22.0693V39.4201C22.0693 40.1271 22.2149 40.6643 22.5013 40.9989C22.7877 41.3335 23.2643 41.5008 23.9264 41.5008C24.5885 41.5008 25.0346 41.3312 25.3351 40.9942C25.6356 40.6572 25.7694 40.1294 25.7694 39.4083V33.7271H27.704Z" fill="#03BE5E"/>
<path d="M38.2057 43.0278H35.7076L31.6765 35.9916H31.6178C31.6976 37.2334 31.7399 38.1123 31.7399 38.6496V43.0278H29.9837V33.7271H32.4606L36.4871 40.6926H36.5317C36.4691 39.4845 36.437 38.6299 36.4355 38.1288V33.7271H38.2057V43.0278Z" fill="#03BE5E"/>
<path d="M2.0778 45.568C2.21272 45.6963 2.31812 45.8526 2.38665 46.0259C2.45518 46.1993 2.48519 46.3856 2.47458 46.5718C2.48499 46.7598 2.45611 46.9479 2.3898 47.124C2.32349 47.3002 2.22121 47.4604 2.08954 47.5945C1.76144 47.8674 1.34054 48.0018 0.915641 47.9692H0V45.2075H0.939119C1.35029 45.1801 1.7567 45.3088 2.0778 45.568ZM2.00737 46.5836C2.00737 45.9521 1.64581 45.6411 0.92738 45.6411H0.469559V47.5262H0.986075C1.26083 47.5462 1.53309 47.4621 1.74911 47.2905C1.84071 47.1986 1.91127 47.0877 1.95587 46.9656C2.00047 46.8436 2.01804 46.7132 2.00737 46.5836Z" fill="#03BE5E"/>
<path d="M3.46301 45.2075H3.93257V47.9622H3.46301V45.2075Z" fill="#03BE5E"/>
<path d="M6.98236 46.6213H7.45192V47.5638C7.30839 47.712 7.13462 47.8273 6.94253 47.9017C6.75044 47.9761 6.54458 48.008 6.33907 47.995C6.15041 48.0005 5.96258 47.9679 5.78673 47.899C5.61089 47.8302 5.45061 47.7267 5.31543 47.5945C5.04887 47.3218 4.89954 46.955 4.89954 46.573C4.89954 46.1909 5.04887 45.8242 5.31543 45.5515C5.44817 45.4193 5.6058 45.315 5.77913 45.2446C5.95246 45.1742 6.13802 45.1391 6.32498 45.1414C6.68565 45.1293 7.03766 45.2538 7.31106 45.4902L7.06454 45.8436C6.9699 45.7595 6.85985 45.6947 6.74054 45.6528C6.6172 45.6158 6.48889 45.5983 6.3602 45.6009C6.23091 45.5965 6.10204 45.618 5.98111 45.6642C5.86018 45.7103 5.74961 45.7801 5.65586 45.8696C5.51341 46.0022 5.41408 46.1749 5.37081 46.3651C5.32755 46.5552 5.34235 46.7541 5.41331 46.9356C5.48426 47.1172 5.60806 47.2732 5.76858 47.3831C5.92911 47.4931 6.1189 47.5519 6.31324 47.552C6.54265 47.5608 6.76958 47.5018 6.96593 47.3824L6.98236 46.6213Z" fill="#03BE5E"/>
<path d="M8.45209 45.2075H8.92165V47.9622H8.45209V45.2075Z" fill="#03BE5E"/>
<path d="M11.1027 45.634V47.9622H10.6332V45.634H9.80676V45.2075H11.9362V45.634H11.1027Z" fill="#03BE5E"/>
<path d="M13.0045 47.3354L12.7298 47.9622H12.2344L13.4435 45.2075H13.9389L15.148 47.9622H14.6526L14.3779 47.3354H13.0045ZM14.1784 46.9065L13.6806 45.7707L13.1805 46.9065H14.1784Z" fill="#03BE5E"/>
<path d="M15.9227 47.9622V45.2075H16.3923V47.5215H17.646V47.9622H15.9227Z" fill="#03BE5E"/>
<path d="M20.8367 45.5703C20.7208 45.5661 20.6061 45.5947 20.5056 45.6528C20.4636 45.6788 20.4293 45.7157 20.4066 45.7597C20.3838 45.8037 20.3734 45.8531 20.3765 45.9026C20.3739 45.953 20.3844 46.0032 20.4071 46.0482C20.4297 46.0933 20.4637 46.1316 20.5056 46.1594C20.6791 46.2502 20.865 46.3145 21.0574 46.3503C21.2887 46.3957 21.5064 46.4941 21.6936 46.6378C21.7675 46.7072 21.825 46.7923 21.8619 46.8869C21.8989 46.9815 21.9144 47.0831 21.9073 47.1845C21.9116 47.2964 21.8894 47.4077 21.8424 47.5093C21.7955 47.6109 21.7252 47.6999 21.6373 47.7689C21.4377 47.9287 21.1881 48.0122 20.9329 48.0045C20.5093 48.0068 20.1007 47.8476 19.7896 47.5591L20.0807 47.208C20.3145 47.4313 20.6221 47.5605 20.9447 47.5709C21.07 47.5771 21.1942 47.5433 21.2992 47.4743C21.3408 47.4459 21.3746 47.4076 21.3975 47.3627C21.4205 47.3178 21.4319 47.2679 21.4307 47.2174C21.4326 47.1689 21.4225 47.1207 21.4011 47.077C21.3798 47.0334 21.348 46.9958 21.3086 46.9677C21.1764 46.89 21.0318 46.8358 20.8813 46.8074C20.7223 46.7719 20.5655 46.727 20.4117 46.6731C20.3114 46.6349 20.2179 46.5808 20.1347 46.5129C20.0529 46.4442 19.9888 46.3567 19.9479 46.2578C19.907 46.159 19.8906 46.0516 19.8999 45.945C19.8942 45.8315 19.9165 45.7183 19.9648 45.6156C20.0132 45.5128 20.086 45.4236 20.1769 45.3559C20.3768 45.2135 20.6175 45.1407 20.8625 45.1485C21.0398 45.1495 21.2157 45.1789 21.3837 45.2357C21.5476 45.2857 21.7006 45.3664 21.8345 45.4737L21.5997 45.8248C21.5024 45.7429 21.3899 45.6812 21.2687 45.6434C21.13 45.5941 20.9838 45.5694 20.8367 45.5703Z" fill="#03BE5E"/>
<path d="M23.4897 47.333C23.5555 47.4025 23.6347 47.4579 23.7225 47.4957C23.8103 47.5335 23.9048 47.553 24.0003 47.553C24.0959 47.553 24.1904 47.5335 24.2782 47.4957C24.366 47.4579 24.4452 47.4025 24.511 47.333C24.645 47.1626 24.7126 46.949 24.7011 46.7321V45.2075H25.1707V46.7533C25.1816 46.9204 25.1582 47.0879 25.1021 47.2456C25.046 47.4032 24.9583 47.5477 24.8444 47.67C24.6141 47.8765 24.3162 47.9906 24.0074 47.9906C23.6986 47.9906 23.4006 47.8765 23.1704 47.67C23.0572 47.5472 22.9702 47.4027 22.9145 47.2451C22.8588 47.0875 22.8356 46.9202 22.8464 46.7533V45.2075H23.3159V46.7321C23.3008 46.9468 23.3624 47.1598 23.4897 47.333Z" fill="#03BE5E"/>
<path d="M26.7461 47.9622H26.2766V45.2075H26.9997L27.8284 46.9371L28.6572 45.2075H29.378V47.9622H28.9084V45.8108L27.9505 47.7218H27.704L26.7485 45.8108L26.7461 47.9622Z" fill="#03BE5E"/>
<path d="M30.9909 47.9622H30.5214V45.2075H31.2445L32.0733 46.9371L32.902 45.2075H33.6205V47.9622H33.1509V45.8108L32.193 47.7218H31.9535L30.9909 45.8108V47.9622Z" fill="#03BE5E"/>
<path d="M34.7897 45.2075H35.2592V47.9622H34.7897V45.2075Z" fill="#03BE5E"/>
<path d="M37.445 45.634V47.9622H36.9754V45.634H36.1561V45.2075H38.2691V45.634H37.445Z" fill="#03BE5E"/>
</g>
<defs>
<clipPath id="clip0_2006_335">
<rect width="116" height="48.0099" fill="white" transform="translate(0 -0.00488281)"/>
</clipPath>
</defs>
</svg>
