<svg width="28" height="34" viewBox="0 0 28 34" fill="none" xmlns="http://www.w3.org/2000/svg">
<path d="M2.82992 1.38842C3.21192 1.38842 3.52159 1.07761 3.52159 0.694211C3.52159 0.310809 3.21192 0 2.82992 0C2.44792 0 2.13824 0.310809 2.13824 0.694211C2.13824 1.07761 2.44792 1.38842 2.82992 1.38842Z" fill="#03BE5E"/>
<path d="M2.82992 3.3562C3.21192 3.3562 3.52159 3.04539 3.52159 2.66198C3.52159 2.27858 3.21192 1.96777 2.82992 1.96777C2.44792 1.96777 2.13824 2.27858 2.13824 2.66198C2.13824 3.04539 2.44792 3.3562 2.82992 3.3562Z" fill="#03BE5E"/>
<path d="M2.82992 5.32495C3.21192 5.32495 3.52159 5.01414 3.52159 4.63073C3.52159 4.24733 3.21192 3.93652 2.82992 3.93652C2.44792 3.93652 2.13824 4.24733 2.13824 4.63073C2.13824 5.01414 2.44792 5.32495 2.82992 5.32495Z" fill="#03BE5E"/>
<path d="M2.82992 7.29223C3.21192 7.29223 3.52159 6.98142 3.52159 6.59802C3.52159 6.21462 3.21192 5.90381 2.82992 5.90381C2.44792 5.90381 2.13824 6.21462 2.13824 6.59802C2.13824 6.98142 2.44792 7.29223 2.82992 7.29223Z" fill="#03BE5E"/>
<path d="M2.82992 9.26C3.21192 9.26 3.52159 8.9492 3.52159 8.56579C3.52159 8.18239 3.21192 7.87158 2.82992 7.87158C2.44792 7.87158 2.13824 8.18239 2.13824 8.56579C2.13824 8.9492 2.44792 9.26 2.82992 9.26Z" fill="#03BE5E"/>
<path d="M2.82992 11.2295C3.21192 11.2295 3.52159 10.9187 3.52159 10.5353C3.52159 10.1519 3.21192 9.84106 2.82992 9.84106C2.44792 9.84106 2.13824 10.1519 2.13824 10.5353C2.13824 10.9187 2.44792 11.2295 2.82992 11.2295Z" fill="#03BE5E"/>
<path d="M2.82992 13.1968C3.21192 13.1968 3.52159 12.886 3.52159 12.5026C3.52159 12.1192 3.21192 11.8083 2.82992 11.8083C2.44792 11.8083 2.13824 12.1192 2.13824 12.5026C2.13824 12.886 2.44792 13.1968 2.82992 13.1968Z" fill="#03BE5E"/>
<path d="M2.82992 15.166C3.21192 15.166 3.52159 14.8552 3.52159 14.4718C3.52159 14.0884 3.21192 13.7776 2.82992 13.7776C2.44792 13.7776 2.13824 14.0884 2.13824 14.4718C2.13824 14.8552 2.44792 15.166 2.82992 15.166Z" fill="#03BE5E"/>
<path d="M2.82992 17.1333C3.21192 17.1333 3.52159 16.8225 3.52159 16.4391C3.52159 16.0557 3.21192 15.7449 2.82992 15.7449C2.44792 15.7449 2.13824 16.0557 2.13824 16.4391C2.13824 16.8225 2.44792 17.1333 2.82992 17.1333Z" fill="#03BE5E"/>
<path d="M2.82992 19.1008C3.21192 19.1008 3.52159 18.79 3.52159 18.4066C3.52159 18.0232 3.21192 17.7124 2.82992 17.7124C2.44792 17.7124 2.13824 18.0232 2.13824 18.4066C2.13824 18.79 2.44792 19.1008 2.82992 19.1008Z" fill="#03BE5E"/>
<path d="M4.80013 3.3562C5.18214 3.3562 5.49181 3.04539 5.49181 2.66198C5.49181 2.27858 5.18214 1.96777 4.80013 1.96777C4.41813 1.96777 4.10846 2.27858 4.10846 2.66198C4.10846 3.04539 4.41813 3.3562 4.80013 3.3562Z" fill="#03BE5E"/>
<path d="M4.80013 5.32495C5.18214 5.32495 5.49181 5.01414 5.49181 4.63073C5.49181 4.24733 5.18214 3.93652 4.80013 3.93652C4.41813 3.93652 4.10846 4.24733 4.10846 4.63073C4.10846 5.01414 4.41813 5.32495 4.80013 5.32495Z" fill="#03BE5E"/>
<path d="M4.80013 7.29223C5.18214 7.29223 5.49181 6.98142 5.49181 6.59802C5.49181 6.21462 5.18214 5.90381 4.80013 5.90381C4.41813 5.90381 4.10846 6.21462 4.10846 6.59802C4.10846 6.98142 4.41813 7.29223 4.80013 7.29223Z" fill="#03BE5E"/>
<path d="M4.80013 9.26C5.18214 9.26 5.49181 8.9492 5.49181 8.56579C5.49181 8.18239 5.18214 7.87158 4.80013 7.87158C4.41813 7.87158 4.10846 8.18239 4.10846 8.56579C4.10846 8.9492 4.41813 9.26 4.80013 9.26Z" fill="#03BE5E"/>
<path d="M4.80013 11.2295C5.18214 11.2295 5.49181 10.9187 5.49181 10.5353C5.49181 10.1519 5.18214 9.84106 4.80013 9.84106C4.41813 9.84106 4.10846 10.1519 4.10846 10.5353C4.10846 10.9187 4.41813 11.2295 4.80013 11.2295Z" fill="#03BE5E"/>
<path d="M4.80013 13.1968C5.18214 13.1968 5.49181 12.886 5.49181 12.5026C5.49181 12.1192 5.18214 11.8083 4.80013 11.8083C4.41813 11.8083 4.10846 12.1192 4.10846 12.5026C4.10846 12.886 4.41813 13.1968 4.80013 13.1968Z" fill="#03BE5E"/>
<path d="M4.80013 15.166C5.18214 15.166 5.49181 14.8552 5.49181 14.4718C5.49181 14.0884 5.18214 13.7776 4.80013 13.7776C4.41813 13.7776 4.10846 14.0884 4.10846 14.4718C4.10846 14.8552 4.41813 15.166 4.80013 15.166Z" fill="#03BE5E"/>
<path d="M4.80013 17.1333C5.18214 17.1333 5.49181 16.8225 5.49181 16.4391C5.49181 16.0557 5.18214 15.7449 4.80013 15.7449C4.41813 15.7449 4.10846 16.0557 4.10846 16.4391C4.10846 16.8225 4.41813 17.1333 4.80013 17.1333Z" fill="#03BE5E"/>
<path d="M4.80013 19.1008C5.18214 19.1008 5.49181 18.79 5.49181 18.4066C5.49181 18.0232 5.18214 17.7124 4.80013 17.7124C4.41813 17.7124 4.10846 18.0232 4.10846 18.4066C4.10846 18.79 4.41813 19.1008 4.80013 19.1008Z" fill="#03BE5E"/>
<path d="M6.77212 9.26C7.15412 9.26 7.46379 8.9492 7.46379 8.56579C7.46379 8.18239 7.15412 7.87158 6.77212 7.87158C6.39012 7.87158 6.08044 8.18239 6.08044 8.56579C6.08044 8.9492 6.39012 9.26 6.77212 9.26Z" fill="#03BE5E"/>
<path d="M6.77212 11.2295C7.15412 11.2295 7.46379 10.9187 7.46379 10.5353C7.46379 10.1519 7.15412 9.84106 6.77212 9.84106C6.39012 9.84106 6.08044 10.1519 6.08044 10.5353C6.08044 10.9187 6.39012 11.2295 6.77212 11.2295Z" fill="#03BE5E"/>
<path d="M6.77212 13.1968C7.15412 13.1968 7.46379 12.886 7.46379 12.5026C7.46379 12.1192 7.15412 11.8083 6.77212 11.8083C6.39012 11.8083 6.08044 12.1192 6.08044 12.5026C6.08044 12.886 6.39012 13.1968 6.77212 13.1968Z" fill="#03BE5E"/>
<path d="M6.77212 15.166C7.15412 15.166 7.46379 14.8552 7.46379 14.4718C7.46379 14.0884 7.15412 13.7776 6.77212 13.7776C6.39012 13.7776 6.08044 14.0884 6.08044 14.4718C6.08044 14.8552 6.39012 15.166 6.77212 15.166Z" fill="#03BE5E"/>
<path d="M6.77212 17.1333C7.15412 17.1333 7.46379 16.8225 7.46379 16.4391C7.46379 16.0557 7.15412 15.7449 6.77212 15.7449C6.39012 15.7449 6.08044 16.0557 6.08044 16.4391C6.08044 16.8225 6.39012 17.1333 6.77212 17.1333Z" fill="#03BE5E"/>
<path d="M6.77212 19.1008C7.15412 19.1008 7.46379 18.79 7.46379 18.4066C7.46379 18.0232 7.15412 17.7124 6.77212 17.7124C6.39012 17.7124 6.08044 18.0232 6.08044 18.4066C6.08044 18.79 6.39012 19.1008 6.77212 19.1008Z" fill="#03BE5E"/>
<path d="M8.7424 9.26C9.1244 9.26 9.43407 8.9492 9.43407 8.56579C9.43407 8.18239 9.1244 7.87158 8.7424 7.87158C8.36039 7.87158 8.05072 8.18239 8.05072 8.56579C8.05072 8.9492 8.36039 9.26 8.7424 9.26Z" fill="#03BE5E"/>
<path d="M8.7424 11.2295C9.1244 11.2295 9.43407 10.9187 9.43407 10.5353C9.43407 10.1519 9.1244 9.84106 8.7424 9.84106C8.36039 9.84106 8.05072 10.1519 8.05072 10.5353C8.05072 10.9187 8.36039 11.2295 8.7424 11.2295Z" fill="#03BE5E"/>
<path d="M8.7424 13.1968C9.1244 13.1968 9.43407 12.886 9.43407 12.5026C9.43407 12.1192 9.1244 11.8083 8.7424 11.8083C8.36039 11.8083 8.05072 12.1192 8.05072 12.5026C8.05072 12.886 8.36039 13.1968 8.7424 13.1968Z" fill="#03BE5E"/>
<path d="M8.7424 15.166C9.1244 15.166 9.43407 14.8552 9.43407 14.4718C9.43407 14.0884 9.1244 13.7776 8.7424 13.7776C8.36039 13.7776 8.05072 14.0884 8.05072 14.4718C8.05072 14.8552 8.36039 15.166 8.7424 15.166Z" fill="#03BE5E"/>
<path d="M8.7424 17.1333C9.1244 17.1333 9.43407 16.8225 9.43407 16.4391C9.43407 16.0557 9.1244 15.7449 8.7424 15.7449C8.36039 15.7449 8.05072 16.0557 8.05072 16.4391C8.05072 16.8225 8.36039 17.1333 8.7424 17.1333Z" fill="#03BE5E"/>
<path d="M10.7126 9.26C11.0946 9.26 11.4043 8.9492 11.4043 8.56579C11.4043 8.18239 11.0946 7.87158 10.7126 7.87158C10.3306 7.87158 10.0209 8.18239 10.0209 8.56579C10.0209 8.9492 10.3306 9.26 10.7126 9.26Z" fill="#03BE5E"/>
<path d="M10.7126 11.2295C11.0946 11.2295 11.4043 10.9187 11.4043 10.5353C11.4043 10.1519 11.0946 9.84106 10.7126 9.84106C10.3306 9.84106 10.0209 10.1519 10.0209 10.5353C10.0209 10.9187 10.3306 11.2295 10.7126 11.2295Z" fill="#03BE5E"/>
<path d="M10.7126 13.1968C11.0946 13.1968 11.4043 12.886 11.4043 12.5026C11.4043 12.1192 11.0946 11.8083 10.7126 11.8083C10.3306 11.8083 10.0209 12.1192 10.0209 12.5026C10.0209 12.886 10.3306 13.1968 10.7126 13.1968Z" fill="#03BE5E"/>
<path d="M10.7126 15.166C11.0946 15.166 11.4043 14.8552 11.4043 14.4718C11.4043 14.0884 11.0946 13.7776 10.7126 13.7776C10.3306 13.7776 10.0209 14.0884 10.0209 14.4718C10.0209 14.8552 10.3306 15.166 10.7126 15.166Z" fill="#03BE5E"/>
<path d="M12.6846 9.26C13.0666 9.26 13.3763 8.9492 13.3763 8.56579C13.3763 8.18239 13.0666 7.87158 12.6846 7.87158C12.3026 7.87158 11.9929 8.18239 11.9929 8.56579C11.9929 8.9492 12.3026 9.26 12.6846 9.26Z" fill="#03BE5E"/>
<path d="M12.6846 11.2295C13.0666 11.2295 13.3763 10.9187 13.3763 10.5353C13.3763 10.1519 13.0666 9.84106 12.6846 9.84106C12.3026 9.84106 11.9929 10.1519 11.9929 10.5353C11.9929 10.9187 12.3026 11.2295 12.6846 11.2295Z" fill="#03BE5E"/>
<path d="M14.6549 11.2295C15.0369 11.2295 15.3465 10.9187 15.3465 10.5353C15.3465 10.1519 15.0369 9.84106 14.6549 9.84106C14.2729 9.84106 13.9632 10.1519 13.9632 10.5353C13.9632 10.9187 14.2729 11.2295 14.6549 11.2295Z" fill="#03BE5E"/>
<path d="M12.6846 13.1968C13.0666 13.1968 13.3763 12.886 13.3763 12.5026C13.3763 12.1192 13.0666 11.8083 12.6846 11.8083C12.3026 11.8083 11.9929 12.1192 11.9929 12.5026C11.9929 12.886 12.3026 13.1968 12.6846 13.1968Z" fill="#03BE5E"/>
<path d="M12.6846 15.166C13.0666 15.166 13.3763 14.8552 13.3763 14.4718C13.3763 14.0884 13.0666 13.7776 12.6846 13.7776C12.3026 13.7776 11.9929 14.0884 11.9929 14.4718C11.9929 14.8552 12.3026 15.166 12.6846 15.166Z" fill="#03BE5E"/>
<path d="M14.6549 13.1968C15.0369 13.1968 15.3465 12.886 15.3465 12.5026C15.3465 12.1192 15.0369 11.8083 14.6549 11.8083C14.2729 11.8083 13.9632 12.1192 13.9632 12.5026C13.9632 12.886 14.2729 13.1968 14.6549 13.1968Z" fill="#03BE5E"/>
<path d="M14.6549 15.166C15.0369 15.166 15.3465 14.8552 15.3465 14.4718C15.3465 14.0884 15.0369 13.7776 14.6549 13.7776C14.2729 13.7776 13.9632 14.0884 13.9632 14.4718C13.9632 14.8552 14.2729 15.166 14.6549 15.166Z" fill="#03BE5E"/>
<path d="M16.6267 13.1968C17.0087 13.1968 17.3184 12.886 17.3184 12.5026C17.3184 12.1192 17.0087 11.8083 16.6267 11.8083C16.2447 11.8083 15.9351 12.1192 15.9351 12.5026C15.9351 12.886 16.2447 13.1968 16.6267 13.1968Z" fill="#03BE5E"/>
<path d="M16.6267 15.166C17.0087 15.166 17.3184 14.8552 17.3184 14.4718C17.3184 14.0884 17.0087 13.7776 16.6267 13.7776C16.2447 13.7776 15.9351 14.0884 15.9351 14.4718C15.9351 14.8552 16.2447 15.166 16.6267 15.166Z" fill="#03BE5E"/>
<path d="M10.7126 16.8896C11.0946 16.8896 11.4043 16.5788 11.4043 16.1954C11.4043 15.812 11.0946 15.5012 10.7126 15.5012C10.3306 15.5012 10.0209 15.812 10.0209 16.1954C10.0209 16.5788 10.3306 16.8896 10.7126 16.8896Z" fill="#03BE5E"/>
<path d="M12.6846 16.8896C13.0666 16.8896 13.3763 16.5788 13.3763 16.1954C13.3763 15.812 13.0666 15.5012 12.6846 15.5012C12.3026 15.5012 11.9929 15.812 11.9929 16.1954C11.9929 16.5788 12.3026 16.8896 12.6846 16.8896Z" fill="#03BE5E"/>
<path d="M14.6549 16.8896C15.0369 16.8896 15.3465 16.5788 15.3465 16.1954C15.3465 15.812 15.0369 15.5012 14.6549 15.5012C14.2729 15.5012 13.9632 15.812 13.9632 16.1954C13.9632 16.5788 14.2729 16.8896 14.6549 16.8896Z" fill="#03BE5E"/>
<path d="M16.6267 16.8896C17.0087 16.8896 17.3184 16.5788 17.3184 16.1954C17.3184 15.812 17.0087 15.5012 16.6267 15.5012C16.2447 15.5012 15.9351 15.812 15.9351 16.1954C15.9351 16.5788 16.2447 16.8896 16.6267 16.8896Z" fill="#03BE5E"/>
<path d="M18.5971 13.1968C18.9791 13.1968 19.2887 12.886 19.2887 12.5026C19.2887 12.1192 18.9791 11.8083 18.5971 11.8083C18.2151 11.8083 17.9054 12.1192 17.9054 12.5026C17.9054 12.886 18.2151 13.1968 18.5971 13.1968Z" fill="#03BE5E"/>
<path d="M18.5971 15.166C18.9791 15.166 19.2887 14.8552 19.2887 14.4718C19.2887 14.0884 18.9791 13.7776 18.5971 13.7776C18.2151 13.7776 17.9054 14.0884 17.9054 14.4718C17.9054 14.8552 18.2151 15.166 18.5971 15.166Z" fill="#03BE5E"/>
<path d="M18.5971 17.1333C18.9791 17.1333 19.2887 16.8225 19.2887 16.4391C19.2887 16.0557 18.9791 15.7449 18.5971 15.7449C18.2151 15.7449 17.9054 16.0557 17.9054 16.4391C17.9054 16.8225 18.2151 17.1333 18.5971 17.1333Z" fill="#03BE5E"/>
<path d="M18.5971 19.1008C18.9791 19.1008 19.2887 18.79 19.2887 18.4066C19.2887 18.0232 18.9791 17.7124 18.5971 17.7124C18.2151 17.7124 17.9054 18.0232 17.9054 18.4066C17.9054 18.79 18.2151 19.1008 18.5971 19.1008Z" fill="#03BE5E"/>
<path d="M20.5691 13.1968C20.9511 13.1968 21.2607 12.886 21.2607 12.5026C21.2607 12.1192 20.9511 11.8083 20.5691 11.8083C20.1871 11.8083 19.8774 12.1192 19.8774 12.5026C19.8774 12.886 20.1871 13.1968 20.5691 13.1968Z" fill="#03BE5E"/>
<path d="M20.5691 15.166C20.9511 15.166 21.2607 14.8552 21.2607 14.4718C21.2607 14.0884 20.9511 13.7776 20.5691 13.7776C20.1871 13.7776 19.8774 14.0884 19.8774 14.4718C19.8774 14.8552 20.1871 15.166 20.5691 15.166Z" fill="#03BE5E"/>
<path d="M20.5691 17.1333C20.9511 17.1333 21.2607 16.8225 21.2607 16.4391C21.2607 16.0557 20.9511 15.7449 20.5691 15.7449C20.1871 15.7449 19.8774 16.0557 19.8774 16.4391C19.8774 16.8225 20.1871 17.1333 20.5691 17.1333Z" fill="#03BE5E"/>
<path d="M20.5691 19.1008C20.9511 19.1008 21.2607 18.79 21.2607 18.4066C21.2607 18.0232 20.9511 17.7124 20.5691 17.7124C20.1871 17.7124 19.8774 18.0232 19.8774 18.4066C19.8774 18.79 20.1871 19.1008 20.5691 19.1008Z" fill="#03BE5E"/>
<path d="M22.5392 15.166C22.9212 15.166 23.2309 14.8552 23.2309 14.4718C23.2309 14.0884 22.9212 13.7776 22.5392 13.7776C22.1572 13.7776 21.8475 14.0884 21.8475 14.4718C21.8475 14.8552 22.1572 15.166 22.5392 15.166Z" fill="#03BE5E"/>
<path d="M24.2668 15.166C24.6488 15.166 24.9585 14.8552 24.9585 14.4718C24.9585 14.0884 24.6488 13.7776 24.2668 13.7776C23.8848 13.7776 23.5751 14.0884 23.5751 14.4718C23.5751 14.8552 23.8848 15.166 24.2668 15.166Z" fill="#03BE5E"/>
<path d="M22.5392 19.1008C22.9212 19.1008 23.2309 18.79 23.2309 18.4066C23.2309 18.0232 22.9212 17.7124 22.5392 17.7124C22.1572 17.7124 21.8475 18.0232 21.8475 18.4066C21.8475 18.79 22.1572 19.1008 22.5392 19.1008Z" fill="#03BE5E"/>
<path d="M22.5392 21.0701C22.9212 21.0701 23.2309 20.7593 23.2309 20.3759C23.2309 19.9924 22.9212 19.6816 22.5392 19.6816C22.1572 19.6816 21.8475 19.9924 21.8475 20.3759C21.8475 20.7593 22.1572 21.0701 22.5392 21.0701Z" fill="#03BE5E"/>
<path d="M24.5095 13.1968C24.8915 13.1968 25.2012 12.886 25.2012 12.5026C25.2012 12.1192 24.8915 11.8083 24.5095 11.8083C24.1275 11.8083 23.8179 12.1192 23.8179 12.5026C23.8179 12.886 24.1275 13.1968 24.5095 13.1968Z" fill="#03BE5E"/>
<path d="M24.5095 19.1008C24.8915 19.1008 25.2012 18.79 25.2012 18.4066C25.2012 18.0232 24.8915 17.7124 24.5095 17.7124C24.1275 17.7124 23.8179 18.0232 23.8179 18.4066C23.8179 18.79 24.1275 19.1008 24.5095 19.1008Z" fill="#03BE5E"/>
<path d="M24.5095 21.0701C24.8915 21.0701 25.2012 20.7593 25.2012 20.3759C25.2012 19.9924 24.8915 19.6816 24.5095 19.6816C24.1275 19.6816 23.8179 19.9924 23.8179 20.3759C23.8179 20.7593 24.1275 21.0701 24.5095 21.0701Z" fill="#03BE5E"/>
<path d="M6.2666 27.1727C6.2666 28.2619 5.99724 29.0996 5.45854 29.6859C4.91983 30.2722 4.14779 30.5654 3.14242 30.5654C2.13706 30.5654 1.36502 30.2722 0.826312 29.6859C0.287604 29.0996 0.0182495 28.2586 0.0182495 27.1627C0.0182495 26.068 0.288158 25.2308 0.827974 24.6512C1.36779 24.0716 2.14371 23.7823 3.15573 23.7835C4.16553 23.7835 4.93701 24.0749 5.47018 24.6579C6.00334 25.2408 6.26882 26.0791 6.2666 27.1727ZM1.47642 27.1727C1.47642 27.9081 1.61553 28.4644 1.89375 28.8415C2.17197 29.2187 2.5882 29.405 3.14242 29.4006C4.25088 29.4006 4.8051 28.6602 4.8051 27.1794C4.8051 25.6986 4.25642 24.9544 3.15905 24.9466C2.60482 24.9466 2.18749 25.1335 1.90705 25.5073C1.62661 25.8811 1.48307 26.4362 1.47642 27.1727Z" fill="#03BE5E"/>
<path d="M10.119 26.7756H12.7228V30.1916C12.3343 30.3219 11.9355 30.419 11.5306 30.4819C11.1524 30.5377 10.7706 30.5656 10.3884 30.5654C9.39742 30.5654 8.6409 30.2733 8.11882 29.6893C7.59673 29.1052 7.33569 28.2663 7.33569 27.1727C7.33569 26.1092 7.6383 25.2803 8.24352 24.6863C8.84873 24.0922 9.68894 23.7946 10.7641 23.7935C11.4344 23.7923 12.0978 23.9298 12.7128 24.1973L12.2506 25.3154C11.787 25.0787 11.2743 24.9552 10.7542 24.9549C10.4838 24.9439 10.2143 24.9927 9.96488 25.098C9.71545 25.2032 9.49218 25.3624 9.31096 25.564C8.94849 25.9701 8.76726 26.5152 8.76726 27.1994C8.76726 27.9137 8.91302 28.4599 9.20455 28.8382C9.35637 29.0268 9.55081 29.1763 9.77172 29.2744C9.99264 29.3725 10.2337 29.4163 10.4748 29.4022C10.7714 29.4015 11.0671 29.3713 11.3577 29.3121V27.9387H10.119V26.7756Z" fill="#03BE5E"/>
<path d="M19.6196 23.8887V28.1507C19.6276 28.5999 19.5125 29.0426 19.2871 29.4307C19.065 29.7976 18.7375 30.0884 18.3477 30.2651C17.8905 30.4702 17.3935 30.5706 16.8928 30.5588C16.0482 30.5588 15.3925 30.3418 14.9259 29.908C14.4592 29.4741 14.2259 28.88 14.2259 28.1257V23.8887H15.6292V27.9204C15.6292 28.4211 15.7323 28.8016 15.9351 29.0385C16.138 29.2755 16.4755 29.394 16.9444 29.394C17.4132 29.394 17.7292 29.2738 17.942 29.0352C18.1548 28.7965 18.2496 28.4227 18.2496 27.9121V23.8887H19.6196Z" fill="#03BE5E"/>
<path d="M27.0568 30.4753H25.2877L22.4329 25.4924H22.3913C22.4478 26.3718 22.4778 26.9943 22.4778 27.3747V30.4753H21.2341V23.8887H22.9882L25.8397 28.8216H25.8713C25.8269 27.9661 25.8042 27.3608 25.8031 27.0059V23.8887H27.0568V30.4753Z" fill="#03BE5E"/>
<path d="M1.47147 32.274C1.56702 32.3648 1.64166 32.4755 1.6902 32.5983C1.73873 32.7211 1.75998 32.853 1.75246 32.9849C1.75984 33.118 1.73938 33.2512 1.69243 33.376C1.64547 33.5007 1.57303 33.6142 1.47978 33.7091C1.24743 33.9024 0.949352 33.9976 0.648445 33.9745H0V32.0187H0.665072C0.956258 31.9993 1.24407 32.0904 1.47147 32.274ZM1.42159 32.9932C1.42159 32.546 1.16554 32.3257 0.656758 32.3257H0.332536V33.6608H0.698325C0.892906 33.6749 1.08571 33.6154 1.2387 33.4939C1.30357 33.4288 1.35354 33.3502 1.38512 33.2638C1.4167 33.1773 1.42915 33.085 1.42159 32.9932Z" fill="#03BE5E"/>
<path d="M2.45245 32.0188H2.78499V33.9696H2.45245V32.0188Z" fill="#03BE5E"/>
<path d="M4.94488 33.02H5.27742V33.6875C5.17577 33.7925 5.05271 33.8741 4.91667 33.9268C4.78063 33.9795 4.63484 34.0021 4.48931 33.9929C4.3557 33.9968 4.22268 33.9736 4.09815 33.9249C3.97362 33.8762 3.86011 33.8028 3.76438 33.7092C3.5756 33.5161 3.46985 33.2563 3.46985 32.9858C3.46985 32.7152 3.5756 32.4555 3.76438 32.2624C3.85838 32.1688 3.97002 32.0949 4.09277 32.045C4.21551 31.9952 4.34692 31.9704 4.47933 31.972C4.73475 31.9634 4.98404 32.0516 5.17766 32.219L5.00307 32.4693C4.93605 32.4097 4.85812 32.3638 4.77362 32.3341C4.68628 32.308 4.59541 32.2956 4.50427 32.2974C4.41271 32.2943 4.32145 32.3095 4.2358 32.3422C4.15016 32.3749 4.07186 32.4243 4.00547 32.4877C3.90458 32.5816 3.83424 32.7039 3.8036 32.8386C3.77296 32.9732 3.78345 33.114 3.83369 33.2426C3.88394 33.3712 3.97162 33.4817 4.0853 33.5595C4.19898 33.6374 4.33339 33.6791 4.47102 33.6792C4.63348 33.6853 4.79419 33.6436 4.93324 33.559L4.94488 33.02Z" fill="#03BE5E"/>
<path d="M5.98566 32.0188H6.31819V33.9696H5.98566V32.0188Z" fill="#03BE5E"/>
<path d="M7.86281 32.3208V33.9696H7.53027V32.3208H6.94501V32.0188H8.45306V32.3208H7.86281Z" fill="#03BE5E"/>
<path d="M9.20954 33.5257L9.01501 33.9696H8.66418L9.52046 32.0188H9.87129L10.7276 33.9696H10.3767L10.1822 33.5257H9.20954ZM10.0409 33.222L9.6884 32.4176L9.33424 33.222H10.0409Z" fill="#03BE5E"/>
<path d="M11.2762 33.9696V32.0188H11.6088V33.6575H12.4967V33.9696H11.2762Z" fill="#03BE5E"/>
<path d="M14.7563 32.2757C14.6742 32.2727 14.593 32.2929 14.5218 32.3341C14.492 32.3525 14.4678 32.3787 14.4517 32.4098C14.4356 32.441 14.4282 32.4759 14.4304 32.511C14.4285 32.5467 14.436 32.5822 14.452 32.6141C14.4681 32.646 14.4921 32.6732 14.5218 32.6929C14.6447 32.7572 14.7763 32.8027 14.9126 32.828C15.0764 32.8602 15.2306 32.9299 15.3631 33.0316C15.4154 33.0808 15.4562 33.1411 15.4823 33.2081C15.5085 33.275 15.5195 33.347 15.5144 33.4188C15.5175 33.498 15.5018 33.5769 15.4685 33.6489C15.4353 33.7208 15.3855 33.7838 15.3232 33.8327C15.1819 33.9458 15.0051 34.005 14.8244 33.9995C14.5245 34.0012 14.2351 33.8884 14.0147 33.6841L14.2209 33.4355C14.3865 33.5936 14.6043 33.6851 14.8327 33.6925C14.9215 33.6969 15.0094 33.6729 15.0838 33.6241C15.1133 33.604 15.1372 33.5768 15.1535 33.545C15.1697 33.5132 15.1778 33.4779 15.1769 33.4422C15.1783 33.4078 15.1711 33.3736 15.156 33.3427C15.1409 33.3118 15.1184 33.2852 15.0905 33.2653C14.9968 33.2103 14.8945 33.1719 14.7879 33.1518C14.6753 33.1266 14.5642 33.0948 14.4553 33.0567C14.3843 33.0296 14.3181 32.9913 14.2591 32.9432C14.2012 32.8946 14.1558 32.8326 14.1269 32.7626C14.0979 32.6925 14.0862 32.6165 14.0929 32.541C14.0888 32.4606 14.1046 32.3805 14.1388 32.3077C14.1731 32.235 14.2247 32.1718 14.2891 32.1238C14.4306 32.023 14.6011 31.9714 14.7746 31.977C14.9001 31.9777 15.0247 31.9985 15.1437 32.0387C15.2598 32.0741 15.3681 32.1313 15.4629 32.2073L15.2966 32.4559C15.2277 32.3979 15.1481 32.3542 15.0622 32.3274C14.964 32.2925 14.8605 32.275 14.7563 32.2757Z" fill="#03BE5E"/>
<path d="M16.6351 33.524C16.6817 33.5733 16.7378 33.6125 16.8 33.6393C16.8622 33.666 16.9291 33.6799 16.9968 33.6799C17.0644 33.6799 17.1314 33.666 17.1935 33.6393C17.2557 33.6125 17.3118 33.5733 17.3584 33.524C17.4533 33.4033 17.5012 33.2521 17.4931 33.0985V32.0188H17.8256V33.1135C17.8333 33.2318 17.8168 33.3505 17.777 33.4621C17.7373 33.5738 17.6752 33.6761 17.5945 33.7627C17.4314 33.9089 17.2204 33.9898 17.0018 33.9898C16.7831 33.9898 16.5721 33.9089 16.409 33.7627C16.3289 33.6758 16.2672 33.5734 16.2278 33.4618C16.1883 33.3502 16.1719 33.2317 16.1796 33.1135V32.0188H16.5121V33.0985C16.5014 33.2505 16.545 33.4014 16.6351 33.524Z" fill="#03BE5E"/>
<path d="M18.9412 33.9696H18.6087V32.0188H19.1208L19.7077 33.2437L20.2947 32.0188H20.8051V33.9696H20.4726V32.446L19.7942 33.7994H19.6196L18.9429 32.446L18.9412 33.9696Z" fill="#03BE5E"/>
<path d="M21.9473 33.9696H21.6148V32.0188H22.1269L22.7138 33.2437L23.3008 32.0188H23.8095V33.9696H23.477V32.446L22.7986 33.7994H22.629L21.9473 32.446V33.9696Z" fill="#03BE5E"/>
<path d="M24.6376 32.0188H24.9701V33.9696H24.6376V32.0188Z" fill="#03BE5E"/>
<path d="M26.518 32.3208V33.9696H26.1855V32.3208H25.6052V32.0188H27.1016V32.3208H26.518Z" fill="#03BE5E"/>
</svg>
